<svg width="48" height="48" viewBox="0 0 48 48" fill="none" xmlns="http://www.w3.org/2000/svg">
<g clip-path="url(#clip0_9_34)">
<path d="M39 0H9C4.02944 0 0 4.02944 0 9V39C0 43.9706 4.02944 48 9 48H39C43.9706 48 48 43.9706 48 39V9C48 4.02944 43.9706 0 39 0Z" fill="#201C1A"/>
<path d="M33 15.75H17.25L20.25 12.75L18.375 10.875L12 17.25L18.375 23.625L20.25 21.75L17.25 18.75H33V15.75Z" fill="white"/>
<path d="M15 32.25H30.75L27.75 35.25L29.625 37.125L36 30.75L29.625 24.375L27.75 26.25L30.75 29.25H15V32.25Z" fill="#B35112"/>
<path d="M29.5467 13.1648L28.2694 12.4941L26.9138 14.574L27.9946 15.4339L27.1831 16.8382L26.3951 16.5765L25.5103 18.1604L25.938 18.5742L25.6961 19.3133L25.1997 19.7989L24.944 19.6946L24.7639 19.7707L24.5127 20.3863L24.9102 20.728L22.0036 25.5861L17.8415 32.2059L17.8903 32.525L18.1331 32.9532L18.5504 33.3927L18.8572 33.5178L19.2315 33.5508L19.6627 33.5173L19.9313 33.2978L22.4077 28.9823L23.5087 26.6489L23.797 26.5272L23.976 26.6002L24.6455 26.9332L25.0571 26.1436L25.4406 26.3001L25.8371 25.4745L25.5512 25.298L27.08 22.7203L27.2079 22.7724L27.3962 22.3107L27.6938 22.3124L28.0426 21.6768L27.9624 21.4347L29.0389 20.2582L31.6298 20.268L31.8182 19.8062L28.837 17.9019L29.695 16.4567L31.9405 17.9712L32.9831 18.4863L33.0982 18.2041L32.0095 15.0971L29.5467 13.1648Z" fill="#395C78"/>
<path d="M18.2569 13.3022L19.4974 12.5655L20.96 14.5716L19.9256 15.4869L20.8096 16.8467L21.5828 16.5442L22.5493 18.0795L22.1439 18.5152L22.4241 19.2406L22.9453 19.6996L23.1952 19.582L23.3791 19.6486L23.6621 20.2502L23.2831 20.6123L26.44 25.3115L30.943 31.7043L30.911 32.0255L30.6909 32.4658L30.2972 32.9265L29.9974 33.0676L29.6253 33.1202L29.1929 33.1093L28.9133 32.9041L26.2143 28.7242L24.9926 26.4517L24.6983 26.3452L24.5234 26.4275L23.8723 26.795L23.4199 26.0281L23.0451 26.2045L22.6059 25.4008L22.8822 25.2095L21.2205 22.7154L21.0956 22.7742L20.8833 22.323L20.5862 22.3403L20.2046 21.7238L20.272 21.4777L19.1354 20.3592L16.5485 20.5047L16.3363 20.0534L19.2137 17.9956L18.2811 16.5973L16.1181 18.2273L15.1039 18.7963L14.9742 18.5205L15.8987 15.3607L18.2569 13.3022Z" fill="#9D312F"/>
</g>
<defs>
<clipPath id="clip0_9_34">
<rect width="48" height="48" fill="white"/>
</clipPath>
</defs>
</svg>
