<svg width="16" height="16" viewBox="0 0 16 16" fill="none" xmlns="http://www.w3.org/2000/svg">
<g clip-path="url(#clip0_9_50)">
<path d="M13 0H3C1.34315 0 0 1.34315 0 3V13C0 14.6569 1.34315 16 3 16H13C14.6569 16 16 14.6569 16 13V3C16 1.34315 14.6569 0 13 0Z" fill="#201C1A"/>
<path d="M11 5.25H5.75L6.75 4.25L6.125 3.625L4 5.75L6.125 7.875L6.75 7.25L5.75 6.25H11V5.25Z" fill="white"/>
<path d="M5 10.75H10.25L9.25 11.75L9.875 12.375L12 10.25L9.875 8.125L9.25 8.75L10.25 9.75H5V10.75Z" fill="#B35112"/>
<path d="M9.8489 4.38829L9.42312 4.16472L8.97125 4.85803L9.33155 5.14464L9.06104 5.61274L8.79836 5.52552L8.50344 6.05347L8.646 6.19142L8.56538 6.43778L8.39991 6.59967L8.31468 6.56489L8.25462 6.59026L8.1709 6.79546L8.30339 6.90936L7.33454 8.52872L5.94716 10.7353L5.96342 10.8417L6.04438 10.9844L6.18345 11.1309L6.28574 11.1726L6.41049 11.1836L6.55424 11.1725L6.64375 11.0993L7.46922 9.66078L7.83624 8.883L7.93234 8.84241L7.992 8.86675L8.21516 8.97774L8.35235 8.71456L8.48021 8.76672L8.61236 8.49152L8.51706 8.43269L9.02668 7.57345L9.06929 7.59083L9.13208 7.43693L9.23127 7.4375L9.34753 7.22563L9.32081 7.14491L9.67964 6.75274L10.5433 6.75601L10.6061 6.6021L9.61234 5.96731L9.89834 5.48559L10.6468 5.99041L10.9944 6.16211L11.0327 6.06806L10.6698 5.03238L9.8489 4.38829Z" fill="#395C78"/>
<path d="M6.08563 4.43406L6.49912 4.1885L6.98666 4.8572L6.64187 5.16229L6.93652 5.61558L7.19427 5.51473L7.51643 6.02651L7.38128 6.17174L7.4747 6.41354L7.64841 6.56654L7.73171 6.52735L7.79301 6.54954L7.88736 6.75008L7.76101 6.87075L8.81332 8.43716L10.3143 10.5681L10.3037 10.6752L10.2303 10.8219L10.0991 10.9755L9.99911 11.0225L9.8751 11.0401L9.73097 11.0364L9.63775 10.968L8.7381 9.57473L8.33085 8.81722L8.23277 8.78173L8.17446 8.80916L7.95742 8.93168L7.80663 8.67604L7.68169 8.73483L7.5353 8.46692L7.62739 8.40318L7.07349 7.5718L7.03184 7.59139L6.96108 7.44099L6.86206 7.44675L6.73486 7.24125L6.75732 7.15925L6.37845 6.78641L5.51617 6.83489L5.44541 6.68448L6.40454 5.99852L6.09371 5.53244L5.37268 6.07576L5.03462 6.26542L4.99138 6.1735L5.29956 5.12024L6.08563 4.43406Z" fill="#9D312F"/>
</g>
<defs>
<clipPath id="clip0_9_50">
<rect width="16" height="16" fill="white"/>
</clipPath>
</defs>
</svg>
