<svg width="256" height="256" viewBox="0 0 256 256" fill="none" xmlns="http://www.w3.org/2000/svg">
<g clip-path="url(#clip0_9_2)">
<path d="M208 0H48C21.4903 0 0 21.4903 0 48V208C0 234.51 21.4903 256 48 256H208C234.51 256 256 234.51 256 208V48C256 21.4903 234.51 0 208 0Z" fill="#201C1A"/>
<path d="M176 84H92L108 68L98 58L64 92L98 126L108 116L92 100H176V84Z" fill="white"/>
<path d="M80 172H164L148 188L158 198L192 164L158 130L148 140L164 156H80V172Z" fill="#B35112"/>
<path d="M157.582 70.2122L150.77 66.6351L143.54 77.728L149.305 82.3139L144.977 89.8034L140.774 88.4079L136.055 96.8551L138.336 99.0623L137.046 103.004L134.399 105.594L133.035 105.038L132.074 105.444L130.734 108.727L132.854 110.549L117.353 136.459L95.1546 171.764L95.4147 173.466L96.71 175.75L98.9352 178.094L100.572 178.762L102.568 178.938L104.868 178.759L106.3 177.588L119.508 154.572L125.38 142.127L126.917 141.478L127.872 141.868L131.443 143.643L133.638 139.433L135.683 140.267L137.798 135.864L136.273 134.923L144.427 121.175L145.109 121.453L146.113 118.99L147.7 119L149.561 115.61L149.133 114.318L154.874 108.043L168.692 108.096L169.697 105.633L153.797 95.4765L158.373 87.7689L170.349 95.8462L175.91 98.5933L176.524 97.0885L170.717 80.5176L157.582 70.2122Z" fill="#395C78"/>
<path d="M97.3703 70.945L103.986 67.0161L111.787 77.7153L106.27 82.5966L110.984 89.8493L115.109 88.2357L120.263 96.4242L118.101 98.7478L119.595 102.617L122.375 105.065L123.707 104.438L124.688 104.793L126.198 108.001L124.176 109.932L141.013 134.995L165.029 169.089L164.859 170.803L163.685 173.151L161.585 175.608L159.986 176.361L158.002 176.641L155.696 176.583L154.204 175.488L139.81 153.196L133.294 141.076L131.724 140.508L130.792 140.947L127.319 142.907L124.906 138.817L122.907 139.757L120.565 135.471L122.039 134.451L113.176 121.149L112.51 121.462L111.377 119.056L109.793 119.148L107.758 115.86L108.117 114.548L102.055 108.583L88.2589 109.358L87.1268 106.952L102.473 95.9764L97.4995 88.519L85.963 97.2122L80.5541 100.247L79.8622 98.7761L84.7931 81.9239L97.3703 70.945Z" fill="#9D312F"/>
</g>
<defs>
<clipPath id="clip0_9_2">
<rect width="256" height="256" fill="white"/>
</clipPath>
</defs>
</svg>
