<svg width="64" height="64" viewBox="0 0 64 64" fill="none" xmlns="http://www.w3.org/2000/svg">
<g clip-path="url(#clip0_9_18)">
<path d="M52 0H12C5.37258 0 0 5.37258 0 12V52C0 58.6274 5.37258 64 12 64H52C58.6274 64 64 58.6274 64 52V12C64 5.37258 58.6274 0 52 0Z" fill="#201C1A"/>
<path d="M44 21H23L27 17L24.5 14.5L16 23L24.5 31.5L27 29L23 25H44V21Z" fill="white"/>
<path d="M20 43H41L37 47L39.5 49.5L48 41L39.5 32.5L37 35L41 39H20V43Z" fill="#B35112"/>
<path d="M39.3956 17.553L37.6925 16.6588L35.885 19.432L37.3262 20.5785L36.2442 22.4508L35.1934 22.102L34.0137 24.2138L34.584 24.7656L34.2615 25.751L33.5996 26.3985L33.2587 26.2594L33.0185 26.3609L32.6836 27.1817L33.2136 27.6373L29.3382 34.1147L23.7886 42.9411L23.8537 43.3666L24.1775 43.9375L24.7338 44.5235L25.1429 44.6904L25.642 44.7344L26.217 44.6897L26.575 44.397L29.8769 38.643L31.345 35.5319L31.7294 35.3695L31.968 35.4669L32.8606 35.9108L33.4094 34.8581L33.9208 35.0668L34.4495 33.966L34.0682 33.7306L36.1067 30.2937L36.2772 30.3632L36.5283 29.7476L36.9251 29.7499L37.3901 28.9024L37.2832 28.5795L38.7186 27.0108L42.1731 27.0239L42.4243 26.4083L38.4493 23.8691L39.5934 21.9422L42.5873 23.9615L43.9774 24.6483L44.1309 24.2721L42.6793 20.1294L39.3956 17.553Z" fill="#395C78"/>
<path d="M24.3426 17.7362L25.9965 16.754L27.9467 19.4288L26.5675 20.6492L27.7461 22.4623L28.7771 22.0589L30.0658 24.1061L29.5252 24.6869L29.8988 25.6542L30.5937 26.2662L30.9269 26.1094L31.1721 26.1981L31.5495 27.0003L31.0441 27.483L35.2533 33.7487L41.2573 42.2723L41.2147 42.7006L40.9212 43.2877L40.3963 43.9021L39.9965 44.0902L39.5005 44.1602L38.9239 44.1457L38.551 43.8721L34.9524 38.2989L33.3235 35.2689L32.9311 35.1269L32.6979 35.2366L31.8297 35.7267L31.2266 34.7042L30.7268 34.9393L30.1412 33.8677L30.5096 33.6127L28.294 30.2872L28.1274 30.3656L27.8444 29.7639L27.4483 29.787L26.9395 28.965L27.0293 28.637L25.5138 27.1456L22.0647 27.3395L21.7817 26.7379L25.6182 23.9941L24.3749 22.1298L21.4907 24.303L20.1385 25.0617L19.9656 24.694L21.1983 20.481L24.3426 17.7362Z" fill="#9D312F"/>
</g>
<defs>
<clipPath id="clip0_9_18">
<rect width="64" height="64" fill="white"/>
</clipPath>
</defs>
</svg>
