<svg width="128" height="128" viewBox="0 0 128 128" fill="none" xmlns="http://www.w3.org/2000/svg">
<g clip-path="url(#clip0_9_10)">
<path d="M104 0H24C10.7452 0 0 10.7452 0 24V104C0 117.255 10.7452 128 24 128H104C117.255 128 128 117.255 128 104V24C128 10.7452 117.255 0 104 0Z" fill="#201C1A"/>
<path d="M88 42H46L54 34L49 29L32 46L49 63L54 58L46 50H88V42Z" fill="white"/>
<path d="M40 86H82L74 94L79 99L96 82L79 65L74 70L82 78H40V86Z" fill="#B35112"/>
<path d="M78.7912 35.1061L75.3849 33.3175L71.77 38.864L74.6524 41.1569L72.4883 44.9017L70.3869 44.2039L68.0275 48.4275L69.168 49.5311L68.523 51.502L67.1993 52.7971L66.5174 52.5189L66.0369 52.7218L65.3672 54.3635L66.4271 55.2746L58.6763 68.2295L47.5773 85.8822L47.7074 86.7331L48.355 87.875L49.4676 89.047L50.2859 89.3808L51.2839 89.4688L52.4339 89.3795L53.15 88.794L59.7538 77.286L62.6899 71.0637L63.4587 70.739L63.936 70.9338L65.7213 71.8217L66.8188 69.7163L67.8416 70.1335L68.8989 67.9319L68.1365 67.4613L72.2134 60.5873L72.5543 60.7264L73.0566 59.4952L73.8501 59.4998L74.7803 57.8048L74.5665 57.159L77.4372 54.0217L84.3462 54.0478L84.8485 52.8166L76.8987 47.7382L79.1867 43.8844L85.1746 47.9231L87.9548 49.2966L88.2618 48.5442L85.3586 40.2588L78.7912 35.1061Z" fill="#395C78"/>
<path d="M48.6851 35.4725L51.993 33.508L55.8934 38.8576L53.1351 41.2983L55.4922 44.9247L57.5542 44.1178L60.1315 48.2121L59.0504 49.3739L59.7977 51.3083L61.1874 52.5323L61.8537 52.2188L62.3442 52.3963L63.099 54.0006L62.0882 54.966L70.5066 67.4973L82.5147 84.5447L82.4294 85.4013L81.8424 86.5755L80.7927 87.8041L79.993 88.1803L79.0009 88.3205L77.8478 88.2915L77.1021 87.7442L69.9049 76.5978L66.6469 70.5378L65.8622 70.2538L65.3958 70.4733L63.6594 71.4534L62.4532 69.4084L61.4536 69.8786L60.2825 67.7354L61.0193 67.2255L56.588 60.5744L56.2548 60.7312L55.6887 59.5279L54.8966 59.574L53.879 57.93L54.0587 57.274L51.0277 54.2913L44.1295 54.6791L43.5634 53.4758L51.2364 47.9882L48.7497 44.2595L42.9815 48.6061L40.2771 50.1234L39.9311 49.388L42.3965 40.9619L48.6851 35.4725Z" fill="#9D312F"/>
</g>
<defs>
<clipPath id="clip0_9_10">
<rect width="128" height="128" fill="white"/>
</clipPath>
</defs>
</svg>
