<svg width="32" height="32" viewBox="0 0 32 32" fill="none" xmlns="http://www.w3.org/2000/svg">
<g clip-path="url(#clip0_9_42)">
<path d="M26 0H6C2.68629 0 0 2.68629 0 6V26C0 29.3137 2.68629 32 6 32H26C29.3137 32 32 29.3137 32 26V6C32 2.68629 29.3137 0 26 0Z" fill="#201C1A"/>
<path d="M22 10.5H11.5L13.5 8.5L12.25 7.25L8 11.5L12.25 15.75L13.5 14.5L11.5 12.5H22V10.5Z" fill="white"/>
<path d="M10 21.5H20.5L18.5 23.5L19.75 24.75L24 20.5L19.75 16.25L18.5 17.5L20.5 19.5H10V21.5Z" fill="#B35112"/>
<path d="M19.6978 8.77652L18.8462 8.32938L17.9425 9.716L18.6631 10.2892L18.1221 11.2254L17.5967 11.051L17.0069 12.1069L17.292 12.3828L17.1308 12.8755L16.7998 13.1993L16.6294 13.1297L16.5092 13.1805L16.3418 13.5909L16.6068 13.8187L14.6691 17.0574L11.8943 21.4705L11.9268 21.6833L12.0888 21.9688L12.3669 22.2617L12.5715 22.3452L12.821 22.3672L13.1085 22.3449L13.2875 22.1985L14.9384 19.3215L15.6725 17.7659L15.8647 17.6848L15.984 17.7334L16.4303 17.9554L16.7047 17.4291L16.9604 17.5334L17.2247 16.983L17.0341 16.8653L18.0534 15.1468L18.1386 15.1816L18.2642 14.8738L18.4625 14.8749L18.6951 14.4512L18.6416 14.2898L19.3593 13.5054L21.0866 13.512L21.2121 13.2041L19.2247 11.9346L19.7967 10.9711L21.2937 11.9808L21.9887 12.3242L22.0654 12.1361L21.3396 10.0647L19.6978 8.77652Z" fill="#395C78"/>
<path d="M12.1713 8.86812L12.9983 8.37701L13.9734 9.71441L13.2838 10.3246L13.8731 11.2312L14.3886 11.0295L15.0329 12.053L14.7626 12.3435L14.9494 12.8271L15.2968 13.1331L15.4634 13.0547L15.5861 13.0991L15.7747 13.5002L15.522 13.7415L17.6267 16.8743L20.6287 21.1362L20.6073 21.3503L20.4606 21.6439L20.1982 21.951L19.9983 22.0451L19.7502 22.0801L19.462 22.0729L19.2755 21.9361L17.4762 19.1495L16.6617 17.6344L16.4656 17.5635L16.3489 17.6183L15.9149 17.8634L15.6133 17.3521L15.3634 17.4697L15.0706 16.9338L15.2548 16.8064L14.147 15.1436L14.0637 15.1828L13.9222 14.882L13.7241 14.8935L13.4698 14.4825L13.5147 14.3185L12.7569 13.5728L11.0324 13.6698L10.8909 13.369L12.8091 11.997L12.1874 11.0649L10.7454 12.1515L10.0693 12.5308L9.98279 12.347L10.5991 10.2405L12.1713 8.86812Z" fill="#9D312F"/>
</g>
<defs>
<clipPath id="clip0_9_42">
<rect width="32" height="32" fill="white"/>
</clipPath>
</defs>
</svg>
